<svg width="28" height="28" viewBox="0 0 28 28" fill="none" xmlns="http://www.w3.org/2000/svg">
<path d="M12.6667 0.666672C19.2907 0.666672 24.6667 6.04267 24.6667 12.6667C24.6667 19.2907 19.2907 24.6667 12.6667 24.6667C6.04275 24.6667 0.666748 19.2907 0.666748 12.6667C0.666748 6.04267 6.04275 0.666672 12.6667 0.666672ZM12.6667 22C17.8227 22 22.0001 17.8227 22.0001 12.6667C22.0001 7.50934 17.8227 3.33334 12.6667 3.33334C7.50941 3.33334 3.33341 7.50934 3.33341 12.6667C3.33341 17.8227 7.50941 22 12.6667 22ZM23.9801 22.0947L27.7521 25.8653L25.8654 27.752L22.0947 23.98L23.9801 22.0947Z" fill="#ECECFD"/>
</svg>
