<svg width="221" height="223" viewBox="0 0 221 223" fill="none" xmlns="http://www.w3.org/2000/svg">
<path d="M129.842 88.0839L137.621 111.601" stroke="#5454EE" stroke-width="1.56444"/>
<path d="M163.508 95.2114L127.296 88.2739L151.451 58.7597L187.853 68.2434L163.508 95.2114Z" stroke="#5454EE" stroke-width="1.56444"/>
<path d="M149.742 120.637L173.426 125.196M173.426 125.196L197.572 99.5982L187.265 68.4379L163.508 95.2114L173.426 125.196Z" stroke="#5454EE" stroke-width="1.56444"/>
<path d="M110.313 64.5396L144.952 74.6067" stroke="#5454EE" stroke-width="1.56444"/>
<path d="M59.8106 55.8066L83.7664 27.6628L118.803 34.9893" stroke="#5454EE" stroke-width="1.56444"/>
<path d="M82.0569 89.5402L105.348 94.8813L121.448 76.5107" stroke="#5454EE" stroke-width="1.56444"/>
<path d="M95.4348 62.9386L105.936 94.6868" stroke="#5454EE" stroke-width="1.56444"/>
<path d="M96.0227 62.7441L118.604 36.3596L126.966 61.6406" stroke="#5454EE" stroke-width="1.56444"/>
<path d="M69.3486 80.6987L61.5698 57.1815L95.0412 63.721" stroke="#5454EE" stroke-width="1.56444"/>
<path d="M64.4145 97.3326L83.269 73.4852" stroke="#5454EE" stroke-width="1.56444"/>
<path d="M132.488 129.605L151.736 104.976" stroke="#5454EE" stroke-width="1.56444"/>
<path d="M82.8079 103.642L90.5867 127.159" stroke="#5454EE" stroke-width="1.56444"/>
<path d="M74.1289 130.646L108.378 139.537" stroke="#5454EE" stroke-width="1.56444"/>
<path d="M33.1456 154.638L22.4497 122.302L60.2265 130.026L70.9224 162.362L33.1456 154.638Z" stroke="#5454EE" stroke-width="1.56444"/>
<path d="M60.4255 128.656L71.5103 162.168L88.402 140.274" stroke="#5454EE" stroke-width="1.56444"/>
<path d="M58.2684 130.022L22.4499 122.302L47.975 92.9865L83.0067 102.271L58.2684 130.022Z" stroke="#5454EE" stroke-width="1.56444"/>
<path d="M161.88 165.741L138.917 193.798L128.592 160.714L151.367 133.957L161.88 165.741ZM127.109 161.213L137.448 194.345L101.041 185.855L90.5149 154.031L127.109 161.213Z" stroke="#5454EE" stroke-width="1.56444"/>
<path d="M90.5277 152.616L114.678 125.06L151.085 132.586L127.911 161.123L90.5277 152.616Z" stroke="#5454EE" stroke-width="1.56444"/>
<path d="M93.8742 60.1934L65.8842 54.4498L84.5397 31.9727L113.507 38.6977L93.8742 60.1934Z" fill="#5454EE" stroke="#5454EE" stroke-width="1.56444"/>
<path d="M56.7127 125.318L29.5051 119.968L49.3364 97.1019L76.5395 104.41L56.7127 125.318Z" fill="#5454EE"/>
<path d="M126.55 157.007L97.7774 150.87L117.215 128.787L144.812 135.313L126.55 157.007Z" fill="#5454EE"/>
<path d="M162.735 90.9013L134.157 85.3522L153.595 63.2686L181.191 69.7946L162.735 90.9013Z" fill="#5454EE"/>
<path d="M56.7127 125.318L29.5051 119.968L49.3364 97.1019L76.5395 104.41L56.7127 125.318Z" stroke="#5454EE" stroke-width="1.56444"/>
<path d="M126.55 157.007L97.7774 150.87L117.215 128.787L144.812 135.313L126.55 157.007Z" stroke="#5454EE" stroke-width="1.56444"/>
<path d="M162.735 90.9013L134.157 85.3522L153.595 63.2686L181.191 69.7946L162.735 90.9013Z" stroke="#5454EE" stroke-width="1.56444"/>
</svg>
